<svg xmlns="http://www.w3.org/2000/svg" version="1.1" xmlns:xlink="http://www.w3.org/1999/xlink" xmlns:svgjs="http://svgjs.dev/svgjs" width="1500" height="261" viewBox="0 0 1500 261"><g transform="matrix(1,0,0,1,-0.9090909090909918,0.8297681843885982)"><svg viewBox="0 0 396 69" data-background-color="#ffffff" preserveAspectRatio="xMidYMid meet" height="261" width="1500" xmlns="http://www.w3.org/2000/svg" xmlns:xlink="http://www.w3.org/1999/xlink"><g id="tight-bounds" transform="matrix(1,0,0,1,0.2400000000000091,-0.21936400276939594)"><svg viewBox="0 0 395.52 69.4387280055388" height="69.4387280055388" width="395.52"><g><svg viewBox="0 0 509.6557541212877 89.47675790575916" height="69.4387280055388" width="395.52"><g transform="matrix(1,0,0,1,114.13575412128772,12.36618)"><svg viewBox="0 0 395.52 64.74439790575916" height="64.74439790575916" width="395.52"><g id="textblocktransform"><svg viewBox="0 0 395.52 64.74439790575916" height="64.74439790575916" width="395.52" id="textblock"><g><svg viewBox="0 0 395.52 64.74439790575916" height="64.74439790575916" width="395.52"><g transform="matrix(1,0,0,1,0,0)"><svg width="395.52" viewBox="5.03 -35.77 298.41 48.86" height="64.74439790575916" data-palette-color="#000000"><path d="M22.61-19.78L22.61-19.78Q24.07-19.36 25.42-18.63 26.76-17.9 27.8-16.85 28.83-15.8 29.46-14.44 30.08-13.09 30.08-11.43L30.08-11.43Q30.08-9.45 29.11-7.42 28.15-5.4 26.27-3.75 24.39-2.1 21.61-1.05 18.82 0 15.19 0L15.19 0 5.03 0 5.03-35.77 16.19-35.77Q19.26-35.77 21.56-35.11 23.85-34.45 25.39-33.37 26.93-32.3 27.7-30.88 28.47-29.47 28.47-27.98L28.47-27.98Q28.47-26.71 27.98-25.55 27.49-24.39 26.68-23.35 25.88-22.31 24.82-21.41 23.75-20.51 22.61-19.78ZM11.08-16.5L11.08-4.3 15.77-4.3Q17.94-4.3 19.47-4.87 21-5.44 21.95-6.36 22.9-7.28 23.33-8.44 23.75-9.59 23.75-10.79L23.75-10.79Q23.75-12.28 23.17-13.35 22.58-14.43 21.51-15.12 20.43-15.82 18.95-16.16 17.46-16.5 15.65-16.5L15.65-16.5 11.08-16.5ZM11.08-20.68L19.04-20.68Q20.58-21.75 21.52-23.19 22.46-24.63 22.46-26.39L22.46-26.39Q22.46-28.74 20.62-30.1 18.77-31.47 15.38-31.47L15.38-31.47 11.08-31.47 11.08-20.68ZM47.9 0.49L47.9 0.49Q44.85 0.49 42.51-0.54 40.18-1.56 38.6-3.31 37.01-5.05 36.19-7.35 35.37-9.64 35.37-12.21L35.37-12.21Q35.37-15.16 36.42-17.74 37.47-20.31 39.37-22.23 41.26-24.15 43.87-25.26 46.48-26.37 49.61-26.37L49.61-26.37Q52.66-26.37 55-25.34 57.35-24.32 58.93-22.56 60.52-20.8 61.34-18.49 62.16-16.19 62.16-13.62L62.16-13.62Q62.16-10.64 61.09-8.07 60.03-5.49 58.13-3.59 56.22-1.68 53.61-0.6 51 0.49 47.9 0.49ZM48.92-3.74L48.92-3.74Q50.49-3.74 51.78-4.38 53.07-5.03 54-6.19 54.93-7.35 55.44-8.96 55.95-10.57 55.95-12.52L55.95-12.52Q55.95-14.43 55.45-16.16 54.95-17.9 54-19.23 53.05-20.56 51.68-21.35 50.31-22.14 48.58-22.14L48.58-22.14Q46.99-22.14 45.7-21.48 44.41-20.83 43.49-19.65 42.58-18.48 42.06-16.86 41.55-15.23 41.55-13.31L41.55-13.31Q41.55-11.38 42.05-9.64 42.55-7.91 43.5-6.59 44.46-5.27 45.82-4.5 47.19-3.74 48.92-3.74ZM79.68 0.49L79.68 0.49Q76.63 0.49 74.3-0.54 71.97-1.56 70.38-3.31 68.79-5.05 67.98-7.35 67.16-9.64 67.16-12.21L67.16-12.21Q67.16-15.16 68.21-17.74 69.26-20.31 71.15-22.23 73.04-24.15 75.65-25.26 78.27-26.37 81.39-26.37L81.39-26.37Q84.44-26.37 86.79-25.34 89.13-24.32 90.72-22.56 92.3-20.8 93.12-18.49 93.94-16.19 93.94-13.62L93.94-13.62Q93.94-10.64 92.88-8.07 91.82-5.49 89.91-3.59 88.01-1.68 85.4-0.6 82.78 0.49 79.68 0.49ZM80.71-3.74L80.71-3.74Q82.27-3.74 83.56-4.38 84.86-5.03 85.79-6.19 86.71-7.35 87.23-8.96 87.74-10.57 87.74-12.52L87.74-12.52Q87.74-14.43 87.24-16.16 86.74-17.9 85.79-19.23 84.83-20.56 83.47-21.35 82.1-22.14 80.37-22.14L80.37-22.14Q78.78-22.14 77.49-21.48 76.19-20.83 75.28-19.65 74.36-18.48 73.85-16.86 73.33-15.23 73.33-13.31L73.33-13.31Q73.33-11.38 73.84-9.64 74.34-7.91 75.29-6.59 76.24-5.27 77.61-4.5 78.97-3.74 80.71-3.74ZM102.73-7.15L102.73-21.66 97.53-21.66 97.97-24.44Q99.89-24.93 101.05-25.54 102.21-26.15 102.98-27.04 103.75-27.93 104.33-29.21 104.9-30.49 105.66-32.32L105.66-32.32 108.49-32.32 108.49-25.88 117.79-25.88 116.74-21.66 108.66-21.66 108.66-8.33Q108.66-7.13 109-6.31 109.34-5.49 109.98-4.98 110.61-4.47 111.5-4.24 112.39-4 113.52-4L113.52-4Q114.59-4 115.65-4.2 116.72-4.39 117.67-4.76L117.67-4.76 117.67-1.78Q116.01-0.66 114.12-0.09 112.22 0.49 110.3 0.49L110.3 0.49Q106.61 0.49 104.67-1.51 102.73-3.52 102.73-7.15L102.73-7.15ZM142.45-5.32L142.45-2.37Q140.71-0.98 138.59-0.24 136.46 0.49 134.02 0.49L134.02 0.49Q131.29 0.49 129.09-0.43 126.89-1.34 125.36-2.97 123.82-4.59 122.99-6.85 122.16-9.11 122.16-11.82L122.16-11.82Q122.16-15.01 123.28-17.69 124.4-20.36 126.34-22.29 128.29-24.22 130.92-25.29 133.56-26.37 136.59-26.37L136.59-26.37Q137.25-26.37 138-26.31 138.76-26.25 139.55-26.12 140.35-26 141.12-25.79 141.88-25.59 142.54-25.29L142.54-25.29 141.49-20.75 140.98-20.51Q140.54-20.83 139.94-21.13 139.35-21.44 138.66-21.66 137.98-21.88 137.25-22.01 136.51-22.14 135.81-22.14L135.81-22.14Q134.24-22.14 132.89-21.53 131.53-20.92 130.52-19.75 129.51-18.58 128.92-16.88 128.33-15.19 128.33-13.04L128.33-13.04Q128.33-10.79 128.97-9.11 129.6-7.42 130.73-6.29 131.85-5.15 133.39-4.58 134.93-4 136.73-4L136.73-4Q137.86-4 139.3-4.27 140.74-4.54 142.45-5.32L142.45-5.32ZM163.37-3.81L163.37-3.81Q162.73-3.27 161.84-2.53 160.95-1.78 159.86-1.11 158.78-0.44 157.49 0.02 156.21 0.49 154.8 0.49L154.8 0.49Q153.36 0.49 152.12-0.04 150.89-0.56 149.98-1.5 149.06-2.44 148.53-3.75 148.01-5.05 148.01-6.64L148.01-6.64Q148.01-8.3 148.68-9.89 149.35-11.47 150.93-12.72 152.5-13.96 155.09-14.73 157.68-15.5 161.49-15.5L161.49-15.5 163.27-15.5 163.27-17.5Q163.27-18.58 162.9-19.43 162.54-20.29 161.88-20.9 161.22-21.51 160.3-21.83 159.39-22.14 158.26-22.14L158.26-22.14Q157.38-22.14 156.38-21.94 155.38-21.73 154.41-21.36 153.43-21 152.5-20.5 151.57-20 150.84-19.41L150.84-19.41 150.4-19.65 149.28-23.75Q152.23-25.29 154.77-25.83 157.31-26.37 159.53-26.37L159.53-26.37Q161.83-26.37 163.62-25.9 165.42-25.44 166.66-24.48 167.91-23.51 168.55-22.03 169.2-20.56 169.2-18.53L169.2-18.53 169.2-6.57Q169.2-6.2 169.26-5.76 169.32-5.32 169.51-4.93 169.69-4.54 170.04-4.27 170.4-4 170.98-4L170.98-4Q171.33-4 171.81-4.1 172.3-4.2 172.79-4.42L172.79-4.42 172.79-1.49Q171.47-0.59 170.17-0.05 168.86 0.49 167.61 0.49L167.61 0.49Q166.64 0.49 165.93 0.12 165.22-0.24 164.73-0.84 164.25-1.44 163.92-2.21 163.59-2.98 163.37-3.81ZM163.27-6.96L163.27-12.62 161.73-12.62Q159.19-12.62 157.64-12.27 156.09-11.91 155.24-11.29 154.38-10.67 154.1-9.85 153.82-9.03 153.82-8.08L153.82-8.08Q153.82-7.08 154.11-6.32 154.41-5.57 154.91-5.05 155.41-4.54 156.09-4.27 156.77-4 157.56-4L157.56-4Q158.14-4 158.78-4.14 159.41-4.27 160.11-4.61 160.8-4.96 161.58-5.52 162.37-6.08 163.27-6.96L163.27-6.96ZM178.06 0L178.06-25.88 182.85-25.88 183.68-21.46Q184.53-22.24 185.59-23.11 186.65-23.97 187.86-24.69 189.07-25.42 190.38-25.89 191.68-26.37 193-26.37L193-26.37Q194.17-26.37 195.27-25.99 196.37-25.61 197.3-24.95 198.23-24.29 198.94-23.38 199.64-22.46 200.03-21.36L200.03-21.36Q200.99-22.17 202.04-23.06 203.09-23.95 204.28-24.68 205.48-25.42 206.81-25.89 208.14-26.37 209.65-26.37L209.65-26.37Q211.46-26.37 212.9-25.66 214.34-24.95 215.35-23.72 216.37-22.49 216.92-20.81 217.47-19.14 217.47-17.19L217.47-17.19 217.47 0 211.53 0 211.53-16.53Q211.53-18.99 210.29-20.42 209.04-21.85 206.94-21.85L206.94-21.85Q206.06-21.85 205.27-21.59 204.48-21.34 203.72-20.89 202.96-20.43 202.21-19.8 201.45-19.17 200.64-18.43L200.64-18.43Q200.69-18.14 200.69-17.85 200.69-17.55 200.69-17.19L200.69-17.19 200.69 0 194.78 0 194.78-16.53Q194.78-17.75 194.44-18.74 194.1-19.73 193.49-20.42 192.88-21.12 192.03-21.48 191.17-21.85 190.15-21.85L190.15-21.85Q189.29-21.85 188.51-21.59 187.73-21.34 186.98-20.89 186.24-20.43 185.5-19.82 184.75-19.21 183.97-18.48L183.97-18.48 183.97 0 178.06 0ZM231.67-18.46L231.67-4.76Q232.28-4.47 232.98-4.27 233.67-4.08 234.33-3.96 234.99-3.83 235.6-3.78 236.21-3.74 236.65-3.74L236.65-3.74Q238.53-3.74 240.05-4.48 241.56-5.22 242.63-6.51 243.71-7.79 244.28-9.5 244.86-11.21 244.86-13.16L244.86-13.16Q244.86-14.99 244.38-16.58 243.9-18.16 243.05-19.34 242.19-20.51 240.97-21.18 239.75-21.85 238.29-21.85L238.29-21.85Q236.53-21.85 234.83-20.91 233.14-19.97 231.67-18.46L231.67-18.46ZM230.5-25.88L231.38-21.53Q232.26-22.36 233.28-23.22 234.31-24.07 235.49-24.77 236.68-25.46 238.03-25.92 239.39-26.37 240.92-26.37L240.92-26.37Q243.29-26.37 245.16-25.33 247.03-24.29 248.32-22.57 249.62-20.85 250.31-18.62 251.01-16.38 251.01-14.01L251.01-14.01Q251.01-10.89 249.86-8.23 248.71-5.57 246.74-3.63 244.76-1.68 242.1-0.6 239.44 0.49 236.43 0.49L236.43 0.49Q235.85 0.49 235.2 0.45 234.55 0.42 233.93 0.34 233.31 0.27 232.72 0.16 232.14 0.05 231.67-0.1L231.67-0.1 231.67 13.09 225.76 13.09 225.76-25.88 230.5-25.88ZM278.76-5.32L278.76-2.37Q277.69-1.61 276.44-1.07 275.2-0.54 273.88-0.18 272.56 0.17 271.26 0.33 269.95 0.49 268.78 0.49L268.78 0.49Q266.07 0.49 263.74-0.34 261.41-1.17 259.68-2.78 257.96-4.39 256.99-6.75 256.01-9.11 256.01-12.16L256.01-12.16Q256.01-15.41 257.11-18.04 258.21-20.68 260.05-22.52 261.89-24.37 264.32-25.37 266.75-26.37 269.39-26.37L269.39-26.37Q271.59-26.37 273.48-25.65 275.37-24.93 276.75-23.51 278.13-22.09 278.91-19.97 279.69-17.85 279.69-15.04L279.69-15.04Q279.69-14.36 279.63-13.59 279.57-12.82 279.42-12.08L279.42-12.08 262.14-12.08Q262.14-10.11 262.83-8.59 263.53-7.08 264.8-6.07 266.07-5.05 267.85-4.53 269.63-4 271.78-4L271.78-4Q272.39-4 273.21-4.05 274.03-4.1 274.96-4.25 275.88-4.39 276.86-4.65 277.84-4.91 278.76-5.32L278.76-5.32ZM262.14-14.97L274.2-14.97Q274.2-16.75 273.75-18.09 273.3-19.43 272.51-20.34 271.73-21.24 270.7-21.69 269.66-22.14 268.46-22.14L268.46-22.14Q267.12-22.14 265.97-21.61 264.82-21.07 263.97-20.1 263.11-19.14 262.63-17.82 262.14-16.5 262.14-14.97L262.14-14.97ZM286.45 0L286.45-25.88 291.24-25.88 292.07-18.16Q292.41-18.8 292.78-19.47 293.14-20.14 293.51-20.76 293.87-21.39 294.19-21.9 294.51-22.41 294.73-22.75L294.73-22.75Q295.24-23.51 295.89-24.18 296.54-24.85 297.29-25.33 298.05-25.81 298.93-26.09 299.81-26.37 300.83-26.37L300.83-26.37Q301.54-26.37 302.25-26.2 302.96-26.03 303.44-25.66L303.44-25.66 302.81-20.21Q302.37-20.34 301.78-20.37 301.2-20.41 300.73-20.41L300.73-20.41Q299.17-20.41 297.95-19.96 296.73-19.51 295.74-18.71 294.75-17.92 293.94-16.85 293.12-15.77 292.36-14.53L292.36-14.53 292.36 0 286.45 0Z" opacity="1" transform="matrix(1,0,0,1,0,0)" fill="#000000" class="wordmark-text-0" data-fill-palette-color="primary" id="text-0"></path></svg></g></svg></g></svg></g></svg></g><g><svg viewBox="0 0 98.85115564128772 89.47675790575916" height="89.47675790575916" width="98.85115564128772"><g><svg xmlns="http://www.w3.org/2000/svg" xmlns:xlink="http://www.w3.org/1999/xlink" version="1.1" x="0" y="0" viewBox="4.75 8.852 86.499 78.29599999999998" enable-background="new 0 0 96 96" xml:space="preserve" height="89.47675790575916" width="98.85115564128772" class="icon-icon-0" data-fill-palette-color="accent" id="icon-0"><path d="M10.103 70.804h28.814v9.415c-12.461 0.211-16.655 5.495-16.831 5.725l-0.916 1.204h53.658l-0.916-1.204c-0.175-0.229-4.369-5.513-16.829-5.725v-9.415h28.813c2.951 0 5.353-2.401 5.353-5.353V14.205c0-2.951-2.401-5.353-5.353-5.353H10.103c-2.951 0-5.353 2.401-5.353 5.353v51.246C4.75 68.402 7.151 70.804 10.103 70.804zM48.75 25.653h33.094v20.335H48.75V25.653zM31.288 35.527c4.425 0 8.025 3.601 8.025 8.027 0 4.424-3.6 8.022-8.025 8.022-4.424 0-8.022-3.599-8.022-8.022C23.266 39.128 26.864 35.527 31.288 35.527zM31.288 53.076c9.108 0 16.543 7.215 16.939 16.228h-9.311H14.35C14.746 60.292 22.181 53.076 31.288 53.076z" fill="#000000" data-fill-palette-color="accent"></path><rect x="56.806" y="30.007" width="16.982" height="1.5" fill="#000000" data-fill-palette-color="accent"></rect><rect x="56.806" y="35.926" width="16.982" height="1.5" fill="#000000" data-fill-palette-color="accent"></rect></svg></g></svg></g></svg></g><defs></defs></svg><rect width="395.52" height="69.4387280055388" fill="none" stroke="none" visibility="hidden"></rect></g></svg></g></svg>